<?xml version="1.0" encoding="UTF-8" standalone="no"?>
<!DOCTYPE svg PUBLIC "-//W3C//DTD SVG 1.1//EN" "http://www.w3.org/Graphics/SVG/1.1/DTD/svg11.dtd">
<svg width="100%" height="100%" viewBox="0 0 1280 1280" version="1.1" xmlns="http://www.w3.org/2000/svg" xmlns:xlink="http://www.w3.org/1999/xlink" xml:space="preserve" xmlns:serif="http://www.serif.com/" style="fill-rule:evenodd;clip-rule:evenodd;stroke-linejoin:round;stroke-miterlimit:2;">
    <g id="Golem" transform="matrix(0.87397,0,0,0.602575,10.0239,53.3743)">
        <path d="M997.337,367.559L1049.83,420.054L940.96,708.164L1092.51,462.734L1209.4,579.618L1209.4,908.263L1156.89,905.673L1209.4,935.389L1209.4,1041.41L1209.28,1041.59L1209.4,1041.76L913.4,1472.08L900.616,1264.03L1099.93,974.078L1099.93,798.213L719.357,1281.12L338.789,798.213L338.789,974.078L529.196,1251.08L532.546,1482.53L229.319,1041.76L229.437,1041.59L229.319,1041.41L229.319,579.618L719.357,89.58L979.368,349.59L947.571,511.044L997.337,367.559ZM352.856,1606.03L279.667,1645.73L137.539,1438.96L222.038,1109.27L506.295,1522.8L374.944,1594.05L334.46,1509.75L352.856,1606.03ZM1157.79,1643.46L935.348,1522.8L1219.61,1109.27L1268.77,1301.1L1220.35,1347.76L1274.14,1322.06L1304.1,1438.96L1176.8,1624.16L1155.99,1541.87L1157.79,1643.46ZM589.489,1721.98L536.42,1537.91L902.294,1537.91L811.492,1857.48L628.555,1857.48L598.574,1753.49L703.333,1694.18L589.489,1721.98Z" style="fill:rgb(74,222,128);"/>
    </g>
</svg>
