<?xml version="1.0" encoding="UTF-8" standalone="no"?>
<!DOCTYPE svg PUBLIC "-//W3C//DTD SVG 1.1//EN" "http://www.w3.org/Graphics/SVG/1.1/DTD/svg11.dtd">
<svg width="100%" height="100%" viewBox="0 0 1280 1280" version="1.1" xmlns="http://www.w3.org/2000/svg" xmlns:xlink="http://www.w3.org/1999/xlink" xml:space="preserve" xmlns:serif="http://www.serif.com/" style="fill-rule:evenodd;clip-rule:evenodd;stroke-linejoin:round;stroke-miterlimit:2;">
    <g id="Human" transform="matrix(1.18636,0,0,1.18636,-119.602,-57.7295)">
        <path d="M764.009,1084.26C745.376,1047.92 511.677,864.655 599.156,672.166C608.583,651.422 643.528,585.704 748.519,619.374C767.936,625.601 792.627,673.827 790.005,699.762C789.097,708.74 784.229,718.715 778.123,728.36C768.012,744.332 749.096,756.694 739.5,764.674C731.073,771.683 716.348,775.001 703.572,775.203C696.246,775.319 685.799,773.536 677.389,756.83C671.79,745.71 673.418,680.693 696.965,679.495C742.408,677.182 726.312,716.074 732.286,712.295C738.26,708.517 741.734,692.149 737.685,686.355C717.821,657.938 683.202,670.541 674.513,678.527C644.148,706.434 647.554,746.914 652.899,764.341C656.878,777.314 663.58,787.917 670.984,793.048C678.236,798.074 690.393,801.031 703.977,800.816C722.556,800.522 743.624,794.561 755.88,784.369C766.966,775.149 788.084,760.516 799.766,742.061C808.19,728.755 814.238,714.725 815.49,702.339C818.868,668.94 793.748,620.67 774.292,603.032C754.942,585.491 709.527,576.735 660.608,590.171C641.401,595.446 611.135,611.418 591.432,631.022C562.643,659.666 546.834,697.816 541.039,734.524C537.187,758.919 541.839,790.497 550.697,823.198C563.345,869.887 584.308,919.068 597.876,951.469C604.75,967.884 614.24,982.855 624.83,997.215C577.361,1003.66 536.338,1040 512.142,1092.14C529.452,1008.75 548.057,900.36 539.409,853.501C527.346,788.135 431.076,762.168 397.409,713.501C366.42,668.705 356.409,600.501 337.409,561.501C323.075,532.079 278.076,495.835 283.409,479.501C288.742,463.168 345.732,446.483 369.409,463.501C401.409,486.501 453.076,602.168 475.409,617.501C494.104,630.336 503.409,578.178 503.409,555.501C503.409,513.835 484.237,430.241 475.409,367.501C466.076,301.168 448.559,192.008 447.409,157.501C446.09,117.91 489.18,105.85 504.67,145.979C523.137,193.821 579.181,445.164 596.409,439.501C611.376,434.582 625.81,164.079 636,113.501C644.203,72.786 704.919,76.275 704.932,112.241C704.949,161.599 678.128,454.177 697.409,459.501C711.583,463.415 741.705,212.376 753.409,169.501C768.006,116.028 823.339,117.663 817.409,177.501C812.165,230.419 782.409,432.835 779.409,487.501C778.918,496.457 792.27,510.93 799.409,505.501C831.409,481.168 935.334,374.23 957.91,341.501C972.934,319.723 1006.41,340.698 995.409,369.501C979.713,410.608 890.076,510.835 861.409,581.501C834.422,648.029 839.076,739.501 823.409,793.501C811.779,833.588 773.089,864.15 767.409,905.501C762.613,940.419 762.746,1017.53 764.009,1084.26Z" style="fill:rgb(74,222,128);"/>
    </g>
</svg>
