<?xml version="1.0" encoding="UTF-8" standalone="no"?>
<!DOCTYPE svg PUBLIC "-//W3C//DTD SVG 1.1//EN" "http://www.w3.org/Graphics/SVG/1.1/DTD/svg11.dtd">
<svg width="100%" height="100%" viewBox="0 0 1280 1280" version="1.1" xmlns="http://www.w3.org/2000/svg" xmlns:xlink="http://www.w3.org/1999/xlink" xml:space="preserve" xmlns:serif="http://www.serif.com/" style="fill-rule:evenodd;clip-rule:evenodd;stroke-linejoin:round;stroke-miterlimit:2;">
    <g id="Krik" transform="matrix(-1.12826,1.38172e-16,-1.38172e-16,-1.12826,1484.48,1184.76)">
        <path d="M1039.62,364.802L1143.46,440.253L992.595,904.584L504.369,904.584L353.499,440.253L457.349,364.802L408.284,241.265L588.464,61.085L534.41,241.265L540.53,304.367L748.482,153.281L956.434,304.367L962.554,241.265L908.5,61.085L1088.68,241.265L1039.62,364.802ZM748.482,276.888L471.056,478.45L577.023,804.584L919.941,804.584L1025.91,478.45L748.482,276.888ZM520.995,554.279L529.093,471.948L617.378,409.962L697.566,430.307L520.995,554.279ZM748.482,482.834L830.918,542.728L799.431,639.638L697.534,639.638L666.046,542.728L748.482,482.834ZM975.969,554.279L799.398,430.307L879.586,409.962L967.871,471.948L975.969,554.279ZM665.035,788.893L588.344,757.87L553.818,655.671L595.984,584.495L665.035,788.893ZM831.929,788.893L900.98,584.495L943.146,655.671L908.62,757.87L831.929,788.893Z" style="fill:rgb(74,222,128);"/>
    </g>
</svg>
