<?xml version="1.0" encoding="UTF-8" standalone="no"?>
<!DOCTYPE svg PUBLIC "-//W3C//DTD SVG 1.1//EN" "http://www.w3.org/Graphics/SVG/1.1/DTD/svg11.dtd">
<svg width="100%" height="100%" viewBox="0 0 1280 1280" version="1.1" xmlns="http://www.w3.org/2000/svg" xmlns:xlink="http://www.w3.org/1999/xlink" xml:space="preserve" xmlns:serif="http://www.serif.com/" style="fill-rule:evenodd;clip-rule:evenodd;stroke-linejoin:round;stroke-miterlimit:2;">
    <g id="Myrian" transform="matrix(1.92803,1.92803,-0.663902,0.647942,227.135,-509.581)">
        <path d="M325.451,445.071C262.258,822.532 408.934,1138.45 495.647,1179.51C373.676,1179.51 258.067,894.632 258.067,607.76C258.067,339.949 344.371,119.173 455.078,91.018C459.473,88.561 522.739,23.553 555.35,53.74C521.043,45.105 477.209,127.524 477.209,127.524C477.209,127.524 524.029,250.191 531.861,344.052C526.953,314.669 492.653,182.314 460.282,183.425C412.947,185.05 355.869,263.382 325.451,445.071ZM402.864,1016.81C438.14,1056.3 479.449,1023.85 497.361,932.664C515.273,841.477 504.178,720.106 474.906,650.058C517.937,723.08 536.733,864.533 516.853,965.741C496.972,1066.95 445.896,1089.83 402.864,1016.81ZM416.85,443.417C407.401,388.718 392.007,347.527 369.795,321.824L396.203,268.972C411.807,305.368 416.733,368.394 416.85,443.417ZM392.645,514.293C375.924,477.485 355.971,460.647 332.314,466.706L347.751,384.439C367.161,396.687 381.129,446.931 392.645,514.293ZM382.335,629.245C362.017,617.088 341.602,627.163 321.076,662.726L323.397,568.444C342.672,554.894 362.402,582.744 382.335,629.245ZM387.928,713.599C368.784,737.041 353.734,779.126 343.377,842.588L327.603,760.361C341.054,717.269 362.655,707.849 387.928,713.599ZM426.61,850.66C410.064,887.741 399.125,939.627 394.615,1008.49L372.1,941.461C381.398,889.822 401.558,864.348 426.61,850.66ZM414.414,-98.179C434.191,-51.11 447.752,-0.52 447.512,57.887L416.823,85.335C424.072,18.481 422.911,-42.437 414.414,-98.179ZM337.195,-28.521C358.984,10.038 374.795,54.644 377.336,112.674L348.307,152.512C352.292,83.223 348.246,23.276 337.195,-28.521ZM249.065,151.962C274.181,163.648 294.533,187.54 304.309,238.528L282.51,307.511C277.341,238.88 265.926,187.777 249.065,151.962ZM197.867,430.208C222.051,407.104 243.875,401.234 260.462,433.619L251.694,524.171C236.487,469.919 218.423,439.618 197.867,430.208ZM184.914,718.568C201.988,663.181 219.931,626.195 239.8,630.056L247.511,721.434C225.139,696.586 204.341,696.693 184.914,718.568ZM232.559,990.785C241.688,921.814 253.914,869.129 273.014,852.596L291.58,930.025C267.53,929.516 248.051,950.692 232.559,990.785ZM341.855,1262.97C332.485,1193.61 329.131,1130.12 339.13,1079.65L370.512,1099.83C352.98,1147.59 343.783,1202.27 341.855,1262.97ZM450.513,397.618C448.274,336.85 438.816,282.419 421.082,235.253L452.278,213.753C462.514,263.944 459.498,327.721 450.513,397.618Z" style="fill:rgb(74,222,128);"/>
    </g>
</svg>
