<?xml version="1.0" encoding="UTF-8" standalone="no"?>
<!DOCTYPE svg PUBLIC "-//W3C//DTD SVG 1.1//EN" "http://www.w3.org/Graphics/SVG/1.1/DTD/svg11.dtd">
<svg width="100%" height="100%" viewBox="0 0 1280 1280" version="1.1" xmlns="http://www.w3.org/2000/svg" xmlns:xlink="http://www.w3.org/1999/xlink" xml:space="preserve" xmlns:serif="http://www.serif.com/" style="fill-rule:evenodd;clip-rule:evenodd;stroke-linejoin:round;stroke-miterlimit:2;">
    <g id="Sylvan" transform="matrix(1.19456,0,0,1.16822,-105.96,-8.8832)">
        <path d="M396.167,498.928C360.511,502.163 279.167,468.928 292.167,462.928C305.167,456.928 431.878,478.69 450.167,482.928C477.5,489.261 546.5,515.594 560.167,504.928C573.834,494.261 547.65,447.452 538.167,432.928C524.249,411.611 532.282,361.568 540.167,370.928C558.139,392.261 627.361,540.594 640,546.928C652.639,553.261 682.972,481.594 692,452.928C700.395,426.27 676.472,374.928 694.167,374.928C711.861,374.928 742.5,412.594 746.167,438.928C749.834,465.261 703.834,521.928 716.167,532.928C728.5,543.928 788.834,502.261 820.167,504.928C851.5,507.594 913.5,538.928 904.167,548.928C894.834,558.928 826.167,542.928 806.167,542.928C786.167,542.928 696.167,610.928 680.167,622.928C664.167,634.928 667.834,733.261 680.167,770.928C691.319,804.987 721.463,834.267 754.167,848.928C792.834,866.261 874.167,854.261 912.167,874.928C947.433,894.107 993.167,963.928 982.167,972.928C971.167,981.928 930.167,926.594 890.167,914.928C855.863,904.922 756.167,898.928 742.167,902.928C728.167,906.928 771.6,937.655 762.167,952.928C748.167,975.594 667.5,1034.93 658.167,1038.93C648.834,1042.93 714.245,1001.78 706.167,976.928C697.5,950.261 623.834,907.261 606.167,878.928C593.424,858.492 599.459,831 600.167,806.928C601.167,772.928 616.5,710.498 612.167,674.928C608.545,645.196 596.781,613.143 574.167,593.505C548.834,571.505 504.167,536.928 488.167,528.928C472.167,520.928 412.659,497.431 396.167,498.928ZM182.632,604.994C182.632,604.994 276.155,517.354 322.748,509.558C351.321,504.777 455.851,559.281 455.851,559.281C455.851,559.281 365.708,595.402 337.135,600.183C290.542,607.978 182.632,604.994 182.632,604.994ZM1019.17,160.261C1019.17,160.261 942.803,292.995 889.323,323.872C856.527,342.807 735.566,381.321 735.566,381.321C735.566,381.321 795.688,239.431 828.484,220.496C881.965,189.619 1019.17,160.261 1019.17,160.261ZM290.774,389.78C290.774,389.78 376.8,368.996 421.001,385.667C448.107,395.89 477.099,455.535 477.099,455.535C477.099,455.535 421.012,453.473 393.906,443.25C349.704,426.58 290.774,389.78 290.774,389.78ZM568.167,816.928C581.167,823.928 574.167,871.594 558.167,886.928C542.167,902.261 501.631,906.199 472.167,908.928C436.167,912.261 372.167,896.261 342.167,906.928C316.161,916.174 294.5,979.594 292.167,972.928C289.834,966.261 297.322,887.928 328.167,866.928C359.5,845.594 440.167,853.261 480.167,844.928C510.302,838.649 555.167,809.928 568.167,816.928ZM238.204,148.714C238.204,148.714 375.411,178.072 428.891,208.949C461.687,227.884 521.81,369.774 521.81,369.774C521.81,369.774 407.795,313.892 374.999,294.957C321.519,264.08 238.204,148.714 238.204,148.714ZM419.456,628.294C419.456,628.294 453.401,588.428 473.062,583.076C485.118,579.793 534.743,596.91 534.743,596.91C534.743,596.91 498.903,621.036 486.847,624.318C467.187,629.67 419.456,628.294 419.456,628.294ZM688.438,71.693C688.438,71.693 722.658,203.324 713.211,257.732C707.418,291.098 633.041,390.739 633.041,390.739C633.041,390.739 554.258,255.573 560.051,222.208C569.499,167.8 688.438,71.693 688.438,71.693ZM837.92,639.841C837.92,639.841 790.189,641.218 770.529,635.866C758.472,632.583 722.632,608.457 722.632,608.457C722.632,608.457 772.257,591.341 784.314,594.623C803.974,599.975 837.92,639.841 837.92,639.841ZM966.602,401.327C966.602,401.327 907.671,438.127 863.47,454.798C836.364,465.02 780.276,467.082 780.276,467.082C780.276,467.082 809.268,407.437 836.374,397.214C880.576,380.543 966.602,401.327 966.602,401.327ZM1019.17,640C1019.17,640 975.593,594.854 945.235,558.659C926.618,536.463 895.464,485.93 895.464,485.93C895.464,485.93 961.343,493.552 979.959,515.748C1010.32,551.943 1019.17,640 1019.17,640Z" style="fill:rgb(74,222,128);"/>
    </g>
</svg>
