<?xml version="1.0" encoding="UTF-8" standalone="no"?>
<!DOCTYPE svg PUBLIC "-//W3C//DTD SVG 1.1//EN" "http://www.w3.org/Graphics/SVG/1.1/DTD/svg11.dtd">
<svg width="100%" height="100%" viewBox="0 0 1280 1280" version="1.1" xmlns="http://www.w3.org/2000/svg" xmlns:xlink="http://www.w3.org/1999/xlink" xml:space="preserve" xmlns:serif="http://www.serif.com/" style="fill-rule:evenodd;clip-rule:evenodd;stroke-linejoin:round;stroke-miterlimit:2;">
    <g id="Velari" transform="matrix(1.29983,0,0,1.29983,-276.832,-159.396)">
        <path d="M305.262,615C305.262,505.469 349.373,406.159 420.783,333.88C421.312,333.271 421.865,332.676 422.444,332.097C423.023,331.518 423.618,330.965 424.227,330.436C496.506,259.026 595.816,214.915 705.347,214.915C814.878,214.915 914.188,259.026 986.467,330.436C987.076,330.965 987.671,331.518 988.25,332.097C988.829,332.676 989.382,333.271 989.911,333.88C1061.32,406.159 1105.43,505.469 1105.43,615C1105.43,724.531 1061.32,823.841 989.911,896.12C989.382,896.729 988.829,897.324 988.25,897.903C987.671,898.482 987.076,899.035 986.467,899.564C914.188,970.974 814.878,1015.09 705.347,1015.09C595.816,1015.09 496.506,970.974 424.227,899.564C423.618,899.035 423.023,898.482 422.444,897.903C421.865,897.324 421.312,896.729 420.783,896.12C349.373,823.841 305.262,724.531 305.262,615ZM456.603,408.798C416.158,457.52 389.743,518.298 383.581,584.908C445.468,593.918 526.434,615 526.434,615C526.434,615 445.468,636.082 383.581,645.092C389.743,711.702 416.158,772.48 456.603,821.202C506.733,783.822 578.837,741.51 578.837,741.51C578.837,741.51 536.525,813.614 499.145,863.744C547.867,904.188 608.645,930.603 675.255,936.766C684.265,874.879 705.347,793.913 705.347,793.913C705.347,793.913 726.429,874.879 735.439,936.766C802.049,930.603 862.827,904.188 911.549,863.744C874.169,813.614 831.857,741.51 831.857,741.51C831.857,741.51 903.961,783.822 954.091,821.202C994.535,772.48 1020.95,711.702 1027.11,645.092C965.226,636.082 884.26,615 884.26,615C884.26,615 965.226,593.918 1027.11,584.908C1020.95,518.298 994.535,457.52 954.091,408.798C903.961,446.178 831.857,488.489 831.857,488.489C831.857,488.489 874.169,416.386 911.549,366.256C862.827,325.811 802.049,299.396 735.439,293.234C726.429,355.121 705.347,436.087 705.347,436.087C705.347,436.087 684.265,355.121 675.255,293.234C608.645,299.396 547.867,325.811 499.145,366.256C536.525,416.386 578.837,488.489 578.837,488.489C578.837,488.489 506.733,446.178 456.603,408.798ZM759.822,628.459C765.134,647.433 768.602,664.925 768.602,678.255C768.602,713.167 740.258,741.51 705.347,741.51C670.435,741.51 642.092,713.167 642.092,678.255C642.092,621.325 705.347,488.489 705.347,488.489C705.347,488.489 725.639,531.103 743.237,578.402C738.144,621.222 721.704,654.964 698.388,683.206C723.047,670.996 746.131,656.511 759.822,628.459Z" style="fill:rgb(74,222,128);"/>
    </g>
</svg>
